<?xml version="1.0" standalone="no"?>
<!DOCTYPE svg PUBLIC "-//W3C//DTD SVG 20010904//EN"
 "http://www.w3.org/TR/2001/REC-SVG-20010904/DTD/svg10.dtd">
<svg version="1.0" xmlns="http://www.w3.org/2000/svg"
 width="256.000000pt" height="256.000000pt" viewBox="0 0 256.000000 256.000000"
 preserveAspectRatio="xMidYMid meet">

<g transform="translate(0.000000,256.000000) scale(0.100000,-0.100000)"
fill="#000000" stroke="none">
<path d="M633 2025 c-18 -7 -42 -29 -53 -47 -18 -31 -20 -50 -20 -269 l0 -235
-36 -18 c-36 -17 -37 -16 -59 4 -26 24 -53 23 -69 -2 -8 -13 -6 -22 12 -41 21
-22 22 -26 7 -60 -12 -29 -21 -36 -46 -39 -66 -6 -64 -70 3 -76 29 -3 38 -9
52 -40 18 -36 18 -36 -8 -55 -28 -20 -33 -46 -14 -65 17 -17 42 -15 71 8 23
18 27 19 61 5 l36 -15 0 -73 c0 -83 12 -113 59 -144 33 -22 41 -23 262 -23
l229 0 0 -120 0 -119 -151 -3 c-132 -3 -153 -5 -163 -20 -8 -13 -8 -23 0 -35
10 -17 49 -18 547 -21 477 -2 537 0 551 14 20 19 20 29 0 48 -13 13 -42 16
-160 16 l-144 0 0 120 0 120 223 1 c145 0 234 4 256 12 55 19 74 54 79 147 l5
80 43 0 c53 0 74 19 74 68 l0 36 28 -27 c15 -15 37 -27 48 -27 26 0 144 120
144 145 0 11 -9 31 -20 45 -27 35 -25 40 14 40 56 0 66 19 66 120 0 102 -10
120 -68 120 l-36 0 27 28 c15 15 27 37 27 48 0 26 -120 144 -146 144 -11 0
-31 -11 -44 -25 -13 -14 -27 -25 -32 -25 -4 0 -8 22 -8 49 0 56 -7 61 -76 61
-44 0 -44 0 -44 35 0 45 -17 81 -49 102 -24 17 -76 18 -736 20 -595 2 -715 0
-742 -12z m1445 -467 l2 -398 -720 0 -720 0 0 388 c0 290 3 391 12 400 9 9
177 12 718 10 l705 -3 3 -397z m122 214 c0 -40 24 -69 66 -77 31 -5 41 -2 65
21 l29 28 32 -32 32 -32 -29 -30 c-28 -30 -29 -30 -14 -77 14 -46 16 -48 57
-51 42 -3 42 -3 42 -43 0 -37 -2 -39 -30 -39 -38 0 -67 -29 -76 -75 -5 -31 -2
-41 20 -64 l26 -27 -30 -29 -30 -29 -30 29 c-28 27 -32 28 -70 16 -43 -13 -60
-34 -60 -75 0 -19 -5 -26 -20 -26 -18 0 -20 7 -20 80 l0 79 39 11 c51 13 98
60 111 111 22 80 -29 167 -111 189 l-39 11 0 79 c0 73 2 80 20 80 15 0 20 -7
20 -28z m20 -232 c43 -43 15 -140 -40 -140 -18 0 -20 7 -20 80 0 73 2 80 20
80 11 0 29 -9 40 -20z m-1660 -260 c0 -60 -3 -110 -7 -110 -30 2 -73 66 -73
108 0 49 37 112 67 112 10 0 13 -25 13 -110z m1518 -277 l-3 -78 -704 -3
c-512 -1 -708 1 -717 9 -9 8 -14 34 -14 80 l0 69 720 0 721 0 -3 -77z m-558
-283 l0 -120 -160 0 -160 0 0 120 0 120 160 0 160 0 0 -120z"/>
<path d="M871 1706 c-13 -16 -81 -344 -74 -362 6 -17 38 -24 105 -24 56 0 57
0 60 -31 6 -64 70 -64 76 -1 3 26 8 31 34 34 63 6 63 70 0 76 l-31 3 -3 71
c-2 55 -7 73 -20 82 -13 8 -23 8 -35 0 -14 -9 -19 -28 -21 -83 l-3 -71 -34 0
c-42 0 -42 -7 -11 163 20 111 21 130 9 143 -18 18 -37 18 -52 0z"/>
<path d="M1270 1702 c-58 -29 -70 -66 -70 -222 0 -156 12 -193 70 -222 46 -23
134 -23 180 0 58 29 70 66 70 222 0 109 -3 142 -18 170 -22 46 -72 70 -142 70
-32 0 -69 -7 -90 -18z m165 -222 l0 -155 -63 -3 c-38 -2 -69 2 -78 9 -19 16
-20 279 -2 297 8 8 36 12 78 10 l65 -3 0 -155z"/>
<path d="M1671 1706 c-12 -15 -71 -293 -71 -337 0 -37 24 -49 99 -49 58 0 61
-1 61 -24 0 -24 23 -56 40 -56 17 0 40 32 40 56 0 19 5 24 24 24 24 0 56 23
56 40 0 17 -32 40 -56 40 -23 0 -24 3 -24 64 0 62 -14 96 -40 96 -26 0 -40
-34 -40 -96 l0 -64 -35 0 c-42 0 -42 -2 -15 145 24 132 25 161 4 169 -23 9
-30 8 -43 -8z"/>
<path d="M252 1068 c-7 -7 -12 -26 -12 -43 0 -26 -6 -34 -36 -49 -36 -17 -37
-16 -59 4 -26 24 -53 23 -69 -2 -8 -13 -6 -22 12 -41 21 -22 22 -26 7 -60 -12
-29 -21 -36 -46 -39 -66 -6 -64 -70 3 -76 29 -3 38 -9 52 -40 18 -36 18 -36
-8 -55 -28 -20 -33 -46 -14 -65 17 -17 42 -15 71 8 23 18 28 19 60 5 29 -12
36 -21 39 -46 6 -65 68 -60 68 5 0 27 6 35 36 50 36 17 37 16 59 -4 26 -25 63
-24 79 2 8 13 5 24 -12 47 -21 29 -21 33 -8 65 12 28 21 35 48 38 60 6 45 68
-16 68 -27 0 -35 6 -50 37 l-18 37 26 19 c28 20 33 46 14 65 -17 17 -39 15
-63 -8 -20 -19 -24 -19 -58 -5 -30 12 -37 20 -37 43 0 31 -16 52 -40 52 -9 0
-21 -5 -28 -12z m109 -187 c33 -33 39 -45 39 -81 0 -36 -6 -48 -39 -81 -33
-33 -45 -39 -81 -39 -36 0 -48 6 -81 39 -32 32 -39 46 -39 77 0 46 31 101 63
114 12 5 39 9 61 9 32 1 45 -6 77 -38z"/>
<path d="M250 825 c-26 -32 13 -81 48 -59 34 22 22 74 -18 74 -10 0 -23 -7
-30 -15z"/>
</g>
</svg>
