<?xml version="1.0" standalone="no"?>
<!DOCTYPE svg PUBLIC "-//W3C//DTD SVG 20010904//EN"
 "http://www.w3.org/TR/2001/REC-SVG-20010904/DTD/svg10.dtd">
<svg version="1.0" xmlns="http://www.w3.org/2000/svg"
 width="200.000000pt" height="200.000000pt" viewBox="0 0 200.000000 200.000000"
 preserveAspectRatio="xMidYMid meet">

<g transform="translate(0.000000,200.000000) scale(0.100000,-0.100000)"
fill="#000000" stroke="none">
<path d="M734 1820 c-101 -40 -172 -123 -200 -232 -20 -79 -12 -149 27 -227
35 -70 82 -114 159 -150 73 -34 191 -35 262 -3 63 28 134 95 166 157 23 44 27
62 27 145 0 81 -4 102 -24 145 -32 63 -93 124 -156 155 -69 34 -189 38 -261
10z"/>
<path d="M452 954 c-101 -50 -179 -130 -231 -235 -36 -74 -61 -168 -61 -231 0
-17 30 -18 489 -18 l489 0 -5 43 c-3 24 -13 49 -24 59 -24 21 -24 25 7 103 24
60 28 65 57 65 45 0 87 43 87 91 0 34 3 38 42 54 41 16 42 17 23 32 -31 23
-138 73 -158 73 -10 0 -39 -11 -65 -24 -159 -81 -372 -79 -508 5 -43 26 -61
24 -142 -17z"/>
<path d="M1579 841 c-20 -29 -138 -34 -167 -7 -31 27 -75 10 -82 -31 -7 -45
-83 -123 -119 -123 -24 0 -31 -6 -40 -32 -10 -27 -8 -35 9 -53 16 -17 20 -35
20 -92 0 -54 -4 -72 -15 -77 -34 -13 -5 -86 35 -86 37 0 120 -80 120 -115 0
-20 8 -29 33 -40 29 -12 34 -12 52 5 13 12 42 19 88 23 59 4 69 2 81 -15 13
-18 18 -19 51 -8 32 11 36 15 32 39 -4 21 4 36 41 76 29 31 58 52 76 55 39 7
56 52 31 80 -26 29 -28 138 -4 166 16 17 17 24 7 52 -10 26 -18 32 -43 32 -40
0 -125 82 -125 122 0 16 -7 28 -17 31 -10 2 -25 8 -34 11 -10 5 -21 0 -30 -13z
m10 -147 c165 -83 140 -323 -38 -370 -135 -35 -259 69 -249 207 6 78 42 133
111 165 67 31 110 30 176 -2z"/>
<path d="M1457 645 c-48 -17 -67 -33 -84 -72 -70 -168 170 -282 253 -121 19
37 14 106 -10 143 -31 48 -102 70 -159 50z"/>
</g>
</svg>
