<svg width="2739" height="458" xmlns="http://www.w3.org/2000/svg" xmlns:xlink="http://www.w3.org/1999/xlink" overflow="hidden"><defs><clipPath id="clip0"><rect x="-147" y="18" width="2739" height="458"/></clipPath></defs><g clip-path="url(#clip0)" transform="translate(147 -18)"><path d="M587.047 18.1176C613.562 18.1176 635.057 18.1176 635.057 18.1176L635.057 475.118C635.057 475.118 613.562 475.118 587.047 475.118L644.066 475.118C617.551 475.118 596.057 475.118 596.057 475.118L596.057 18.1176C596.057 18.1176 617.551 18.1176 644.066 18.1176Z" fill="#729343" fill-rule="evenodd"/><path d="M988.69 99.5831 988.69 99.5831C988.69 93.3616 989.252 89.0902 990.385 86.7584 991.519 84.4267 993.807 82.837 997.272 81.989L997.272 81.989 1086.27 60.4732C1088.46 59.7632 1090.75 59.4136 1093.16 59.4136L1093.16 59.4136C1095.63 59.4136 1097.29 60.1554 1098.14 61.6392 1098.98 63.1231 1099.41 66.0908 1099.41 70.5421L1099.41 70.5421 1096.34 111.242C1095.49 123.113 1094.53 134.909 1093.48 146.642 1092.42 158.375 1090.86 168.656 1088.81 177.484L1088.81 177.484 1084.15 214.156C1082.74 225.042 1081.43 236.806 1080.23 249.451 1079.03 262.169 1077.76 276.372 1076.42 292.058L1076.42 292.058 1064.23 419.668C1064.1 421.226 1063.73 422.774 1063.17 424.332 1062.68 425.89 1061.55 426.981 1059.78 427.617L1059.78 427.617C1058.59 428.179 1055.79 429.313 1051.41 431.009 1047.04 432.779 1041.8 434.75 1035.73 436.944 1029.72 439.202 1023.26 441.576 1016.34 444.046 1009.49 446.589 1002.96 448.889 996.742 450.935 990.523 452.98 985.013 454.719 980.214 456.128 975.34 457.474 972.055 458.142 970.361 458.142L970.361 458.142C967.955 458.142 965.836 457.506 964.003 456.234 962.17 454.962 961.249 452.525 961.249 448.921L961.249 448.921C961.249 428.009 962.446 406.632 964.851 384.798 967.32 362.965 969.513 341.268 971.42 319.721L971.42 319.721C971.706 317.315 971.812 315.089 971.738 313.044 971.664 310.998 971.812 308.73 972.162 306.261L972.162 306.261 877.442 306.261 866.846 419.668C866.709 421.226 866.423 422.71 865.999 424.12 865.575 425.604 864.41 426.769 862.502 427.617L862.502 427.617C861.793 427.967 858.37 429.239 852.225 431.433 846.154 433.553 839.087 436.065 831.035 438.958 823.057 441.788 815.111 444.607 807.196 447.437 799.356 450.267 793.391 452.45 789.291 454.008L789.291 454.008C787.172 454.931 784.629 455.842 781.662 456.764 778.621 457.686 775.655 458.142 772.762 458.142L772.762 458.142C770.294 458.142 768.174 457.474 766.405 456.128 764.572 454.719 763.65 452.207 763.65 448.603L763.65 448.603C763.65 440.336 763.968 430.903 764.604 420.304 765.166 409.705 765.875 398.577 766.723 386.918 767.645 375.259 768.704 363.314 769.901 351.094 771.099 338.799 772.306 326.716 773.504 314.846L773.504 314.846 774.033 307.32C760.048 307.32 749.909 306.928 743.626 306.155 737.343 305.381 734.196 303.367 734.196 300.113L734.196 300.113C734.196 297.856 735.467 294.92 738.01 291.316L738.01 291.316C741.475 286.441 745.501 280.611 750.089 273.828 754.676 267.045 759.063 260.336 763.227 253.69 767.465 247.045 771.279 241.078 774.669 235.778 777.986 230.553 780.179 227.161 781.238 225.603L781.238 225.603 787.172 163.176C787.172 162.826 787.352 160.24 787.701 155.439 788.051 150.638 788.475 144.914 788.973 138.269 789.534 131.623 790.106 124.776 790.668 117.707 791.304 110.574 791.865 104.533 792.363 99.5831L792.363 99.5831C792.713 93.51 793.179 89.2704 793.74 86.8646 794.376 84.4584 796.421 82.837 799.886 81.989L799.886 81.989 887.825 60.4732C890.082 59.7632 892.413 59.4136 894.818 59.4136L894.818 59.4136C897.222 59.4136 898.844 60.1554 899.691 61.6392 900.539 63.1231 900.963 66.0908 900.963 70.5421L900.963 70.5421C899.765 82.9746 898.844 94.2836 898.208 104.459 897.498 114.633 896.756 124.141 895.983 132.97 895.21 141.735 894.394 150.065 893.546 157.983 892.624 165.963 891.395 174.093 889.838 182.36L889.838 182.36 884.752 222.424 978.625 221.47C980.182 198.502 981.909 179 983.816 162.964 985.723 146.928 986.921 134.241 987.418 124.914L987.418 124.914C987.917 116.085 988.266 109.79 988.478 106.048 988.616 102.233 988.69 100.081 988.69 99.5831ZM1243.71 263.865 1243.71 263.865C1243.71 276.298 1245.06 288.772 1247.74 301.279 1250.42 313.786 1254.87 325.021 1261.09 334.983 1267.31 345.021 1275.5 353.139 1285.67 359.361 1295.84 365.582 1308.42 368.688 1323.39 368.688L1323.39 368.688C1334.97 367.978 1345.11 365.614 1353.8 361.586 1362.48 357.485 1370.01 352.228 1376.36 345.794 1382.65 339.297 1387.84 331.878 1391.94 323.537 1396.1 315.132 1399.39 306.335 1401.79 297.146 1404.2 287.893 1405.89 278.417 1406.88 268.741 1407.8 259.127 1408.26 249.843 1408.26 240.866L1408.26 240.866C1408.26 228.571 1406.63 216.7 1403.38 205.254 1400.07 193.807 1395.15 183.664 1388.65 174.835 1382.09 166.07 1373.93 159.011 1364.18 153.637 1354.43 148.264 1343.1 145.582 1330.17 145.582L1330.17 145.582C1320 145.582 1310.81 147.49 1302.62 151.305 1294.43 155.121 1287.12 160.177 1280.69 166.462 1274.33 172.747 1268.86 179.996 1264.27 188.189 1259.74 196.382 1255.97 204.83 1252.93 213.52 1249.89 222.212 1247.67 230.935 1246.26 239.7 1244.77 248.391 1243.93 256.446 1243.71 263.865ZM1294.15 453.796 1294.15 453.796C1268.29 453.796 1245.2 448.953 1224.85 439.276 1204.51 429.663 1187.32 416.595 1173.26 400.06 1159.2 383.6 1148.43 364.554 1140.94 342.932 1133.45 321.237 1129.71 298.343 1129.71 274.252L1129.71 274.252C1129.71 247.119 1133.52 222.138 1141.15 199.318 1148.86 176.425 1159.59 156.149 1173.36 138.481 1187.21 120.813 1203.63 105.911 1222.63 93.7538 1241.7 81.5969 1262.6 72.5879 1285.35 66.7268L1285.35 66.7268C1287.47 66.7268 1289.09 65.0627 1290.23 61.7451 1291.29 58.4913 1292.27 54.8876 1293.19 50.9344 1294.04 46.9811 1295.07 43.3349 1296.26 40.0175 1297.46 36.7638 1299.2 35.142 1301.46 35.142L1301.46 35.142C1334.86 38.6081 1364.95 44.5009 1391.73 52.8422 1418.43 61.1835 1441.1 73.1176 1459.75 88.6663 1478.39 104.215 1492.67 123.854 1502.55 147.596 1512.44 171.263 1517.38 200.198 1517.38 234.4L1517.38 234.4C1517.38 256.308 1514.74 276.902 1509.44 296.192 1504.07 315.556 1496.54 333.362 1486.87 349.61 1477.26 365.932 1465.68 380.527 1452.12 393.383 1438.56 406.239 1423.51 417.156 1406.98 426.133 1390.38 435.111 1372.58 441.958 1353.58 446.695 1334.51 451.433 1314.7 453.796 1294.15 453.796ZM1548.96 273.192 1548.96 273.192C1548.96 253.34 1551.26 234.326 1555.84 216.17 1560.43 197.94 1566.94 180.951 1575.34 165.19 1583.82 149.366 1594.06 135.015 1606.07 122.159 1618.01 109.302 1631.39 98.2794 1646.22 89.0902 1661.05 79.8375 1677.13 72.6937 1694.43 67.6805 1711.8 62.7309 1730.06 60.2612 1749.2 60.2612L1749.2 60.2612C1764.39 60.2612 1777.71 61.2471 1789.15 63.2289 1800.59 65.2111 1810.58 67.6805 1819.13 70.6483 1827.68 73.69 1834.84 77.0077 1840.64 80.611 1846.44 84.2891 1851.2 87.7443 1854.94 90.9981L1854.94 90.9981C1854.81 90.9981 1854.73 91.6022 1854.73 92.7997L1854.73 92.7997C1854.73 95.4179 1854.94 100.145 1855.37 107.002 1855.79 113.923 1856.32 121.629 1856.96 130.108 1857.52 138.512 1858.02 147.098 1858.44 155.863 1858.86 164.554 1859.08 172.079 1859.08 178.439L1859.08 178.439C1859.08 179.498 1858.76 180.664 1858.12 181.936 1857.41 183.282 1855.69 183.95 1852.93 183.95L1852.93 183.95C1851.37 183.95 1849.47 183.664 1847.21 183.102L1847.21 183.102C1843.61 182.116 1839.05 179.742 1833.54 176.001 1828.03 172.323 1821.6 168.444 1814.26 164.342 1806.92 160.314 1798.72 156.711 1789.68 153.531 1780.64 150.352 1770.74 148.762 1760.01 148.762L1760.01 148.762C1745.89 148.762 1733.07 151.729 1721.55 157.665 1709.97 163.6 1700.12 171.867 1691.99 182.466 1683.94 193.065 1677.66 205.678 1673.13 220.304 1668.68 234.856 1666.46 250.691 1666.46 267.787L1666.46 267.787C1666.46 282.763 1667.83 296.828 1670.59 309.97 1673.34 323.038 1677.51 334.379 1683.09 343.992 1688.68 353.532 1695.63 361.057 1703.96 366.568 1712.23 372.079 1721.94 374.835 1733.1 374.835L1733.1 374.835C1743.98 374.835 1756.34 372.503 1770.18 367.84L1770.18 367.84 1776.12 331.38 1726.64 331.38C1730.45 310.532 1733.74 294.146 1736.49 282.201 1739.25 270.33 1741.82 261.353 1744.23 255.28 1746.69 249.271 1749.2 245.497 1751.75 243.939 1754.36 242.381 1757.39 241.607 1760.86 241.607L1760.86 241.607 1896.9 241.607C1900.85 241.607 1903.76 241.852 1905.59 242.35 1907.36 242.911 1908.24 244.755 1908.24 247.861L1908.24 247.861C1908.24 249.419 1908.06 251.252 1907.71 253.372 1907.42 255.566 1907 258.216 1906.44 261.321L1906.44 261.321 1893.51 304.777C1891.95 310.288 1890.68 314.56 1889.7 317.601 1888.64 320.569 1887.33 322.795 1885.78 324.279 1884.22 325.762 1882.1 326.61 1879.42 326.822 1876.74 327.108 1872.88 327.246 1867.87 327.246L1867.87 327.246C1865.11 327.246 1863.49 328.38 1863 330.638 1862.5 332.895 1862.07 335.227 1861.72 337.633L1861.72 337.633C1860.67 345.19 1859.64 352.715 1858.65 360.209 1857.59 367.766 1856.56 374.761 1855.58 381.195 1854.66 387.692 1853.67 393.383 1852.61 398.258 1851.63 403.208 1850.6 406.812 1849.54 409.069L1849.54 409.069C1837.81 416.488 1827.18 422.986 1817.65 428.571 1808.04 434.157 1798.5 438.82 1789.04 442.562 1779.58 446.239 1769.58 449.027 1759.06 450.935 1748.54 452.843 1736.46 453.796 1722.82 453.796L1722.82 453.796C1698.53 453.796 1675.75 449.377 1654.48 440.548 1633.29 431.783 1614.89 419.424 1599.28 403.452 1583.68 387.48 1571.39 368.476 1562.41 346.43 1553.44 324.31 1548.96 299.901 1548.96 273.192ZM2159.66 225.603 2159.66 225.603C2159.02 228.009 2157.75 231.401 2155.84 235.778 2153.94 240.156 2151.71 245.105 2149.17 250.617 2146.7 256.202 2144.05 262.137 2141.22 268.423 2138.39 274.708 2135.58 281.035 2132.75 287.395L2132.75 287.395C2131.76 289.8 2130.84 291.56 2129.99 292.694 2129.07 293.828 2127.69 294.634 2125.86 295.132 2123.95 295.694 2121.3 296.011 2117.91 296.086 2114.52 296.16 2109.83 296.298 2103.82 296.51L2103.82 296.51 2067.91 297.252 2060.59 376.425 2193.35 376.425 2193.35 386.494C2193 386.844 2191.52 389.144 2188.9 393.383 2186.36 397.622 2183.36 402.678 2179.9 408.539 2176.43 414.4 2172.8 420.304 2168.98 426.24 2165.24 432.175 2162.06 436.944 2159.45 440.548L2159.45 440.548C2157.68 443.653 2155.71 446.134 2153.51 447.967 2151.26 449.801 2148.78 451.147 2146.1 451.995 2143.42 452.843 2140.48 453.372 2137.3 453.584 2134.12 453.722 2130.63 453.796 2126.81 453.796L2126.81 453.796C2111.35 453.796 2095.21 453.447 2078.39 452.736 2061.52 452.026 2044.73 451.179 2028.07 450.193 2011.33 449.133 1994.98 447.967 1979.01 446.695 1963.05 445.423 1948.25 444.077 1934.62 442.668L1934.62 442.668C1933.42 442.53 1932.36 441.82 1931.44 440.548 1930.45 439.35 1929.96 437.973 1929.96 436.414L1929.96 436.414C1929.32 436.414 1929.82 434.962 1931.44 432.069 1933.06 429.101 1935.36 425.285 1938.33 420.622 1941.22 416.033 1944.44 410.734 1947.97 404.724 1951.5 398.789 1954.89 392.821 1958.14 386.812L1958.14 386.812 1962.38 328.518C1963.01 318.693 1963.54 311.38 1963.97 306.579 1964.47 301.703 1964.71 299.128 1964.71 298.841L1964.71 298.841C1954.33 298.629 1946.59 298.099 1941.51 297.252 1936.42 296.404 1933.88 294.496 1933.88 291.528L1933.88 291.528C1933.88 290.182 1935.12 287.607 1937.59 283.791 1940.13 279.975 1943.2 275.63 1946.8 270.754 1950.41 265.805 1954.25 260.654 1958.35 255.28 1962.38 249.981 1965.95 245.074 1969.05 240.548L1969.05 240.548 1975.52 152.577 1974.77 152.577C1970.96 152.789 1967.5 152.927 1964.39 153.001 1961.29 153.076 1958.46 153.107 1955.92 153.107L1955.92 153.107C1947.58 153.107 1941.64 152.652 1938.12 151.729 1934.59 150.744 1932.82 148.974 1932.82 146.43L1932.82 146.43C1932.82 145.158 1933.88 142.646 1936 138.905 1938.04 135.089 1940.63 130.712 1943.73 125.762 1946.83 120.887 1950.12 115.725 1953.58 110.288 1956.97 104.851 1960.05 99.7951 1962.8 95.1315L1962.8 95.1315 1978.38 68.7404 2086.45 68.7404 2214.01 59.4136C2214.15 59.4136 2214.61 59.4454 2215.39 59.5194 2216.16 59.6574 2217.01 59.9434 2217.93 60.3674 2218.78 60.7913 2219.59 61.5331 2220.37 62.593 2221.14 63.5788 2221.53 65.0309 2221.53 66.9388L2221.53 66.9388 2217.61 80.399C2216.42 84.2147 2214.96 88.2423 2213.27 92.4819 2211.5 96.6471 2209.59 100.993 2207.55 105.519L2207.55 105.519 2196.21 135.513C2194.94 138.481 2193.56 140.707 2192.08 142.191 2190.52 143.748 2187.24 144.628 2182.23 144.84L2182.23 144.84C2169.09 145.19 2154.47 145.762 2138.36 146.536 2122.26 147.31 2103.75 148.052 2082.84 148.762L2082.84 148.762C2082.13 151.168 2081.78 153.076 2081.78 154.485 2081.78 155.969 2081.65 158.799 2081.36 162.964L2081.36 162.964 2079.98 174.835C2079.7 180.346 2079.21 186.313 2078.5 192.747 2077.79 199.106 2076.91 206.949 2075.85 216.276L2075.85 216.276C2084.68 215.927 2093.26 215.566 2101.6 215.216 2110 214.867 2117.63 214.549 2124.48 214.263 2131.4 214.051 2137.41 213.839 2142.49 213.627 2147.58 213.489 2151.15 213.415 2153.2 213.415L2153.2 213.415C2154.6 213.415 2156.16 213.944 2157.86 215.004 2159.63 215.99 2160.51 217.972 2160.51 220.94L2160.51 220.94C2160.51 222.286 2160.22 223.833 2159.66 225.603ZM2382.69 276.266 2369.97 419.668C2369.83 421.226 2369.55 422.71 2369.12 424.12 2368.7 425.604 2367.53 426.769 2365.63 427.617L2365.63 427.617C2364.92 427.967 2361.49 429.239 2355.35 431.433 2349.28 433.553 2342.21 436.065 2334.16 438.958 2326.18 441.788 2318.23 444.607 2310.32 447.437 2302.48 450.267 2296.52 452.45 2292.42 454.008L2292.42 454.008C2290.3 454.931 2287.75 455.842 2284.79 456.764 2281.75 457.686 2278.78 458.142 2275.89 458.142L2275.89 458.142C2273.42 458.142 2271.3 457.538 2269.53 456.34 2267.7 455.143 2266.77 452.917 2266.77 449.663L2266.77 449.663C2266.77 442.032 2266.99 435.068 2267.41 428.783 2267.83 422.498 2268.4 415.927 2269.11 409.069 2269.82 402.148 2270.56 394.517 2271.33 386.176 2272.1 377.771 2272.85 367.808 2273.56 356.287L2273.56 356.287C2274.4 341.099 2275.33 326.472 2276.31 312.408 2277.37 298.343 2278.43 283.717 2279.49 268.529L2279.49 268.529 2283.09 224.225C2283.59 217.018 2284.12 209.673 2284.68 202.18 2285.18 194.623 2285.67 186.886 2286.16 178.968L2286.16 178.968 2289.02 147.384C2289.02 147.034 2288.49 146.854 2287.44 146.854L2287.44 146.854C2286.09 146.854 2283.76 147.172 2280.44 147.808 2277.19 148.444 2273.34 149.186 2268.89 150.033 2264.37 150.881 2259.39 151.761 2253.95 152.683 2248.52 153.669 2242.97 154.591 2237.32 155.439L2237.32 155.439C2235.91 155.439 2234.57 155.121 2233.29 154.485 2232.02 153.923 2231.39 153.213 2231.39 152.365L2231.39 152.365C2231.39 151.655 2231.52 151.125 2231.81 150.776L2231.81 150.776 2273.77 77.5374C2283.23 75.492 2293.44 73.3722 2304.39 71.178 2315.33 69.0586 2327.13 67.119 2339.77 65.3487 2352.35 63.6529 2365.7 62.2434 2379.82 61.1091 2393.95 59.9752 2408.96 59.4136 2424.85 59.4136L2424.85 59.4136C2442.79 59.7632 2460.24 61.5331 2477.19 64.7128 2494.22 67.8925 2509.3 73.2661 2522.43 80.823 2535.65 88.3163 2546.27 98.4914 2554.33 111.348 2562.3 124.204 2566.3 140.463 2566.3 160.102L2566.3 160.102C2566.3 170.987 2564.46 180.982 2560.79 190.097 2557.05 199.286 2552.28 207.511 2546.48 214.792 2540.76 222.138 2534.44 228.603 2527.52 234.188 2520.6 239.838 2513.99 244.65 2507.71 248.603 2501.42 252.556 2495.87 255.704 2491.07 258.036 2486.2 260.368 2482.91 261.883 2481.22 262.593L2481.22 262.593C2481.22 262.943 2481.36 263.367 2481.64 263.865 2481.85 264.363 2482.42 265.349 2483.34 266.833 2484.19 268.317 2485.43 270.405 2487.05 273.086 2488.67 275.704 2490.79 279.34 2493.4 284.003L2493.4 284.003C2496.16 288.168 2499.44 293.722 2503.26 300.643 2507 307.501 2511.52 315.619 2516.82 325.021 2522.04 334.422 2528.12 344.914 2535.04 356.499 2541.9 368.083 2549.8 380.527 2558.78 393.807L2558.78 393.807C2561.74 396.351 2565.13 397.941 2568.95 398.577 2572.69 399.138 2576.23 399.456 2579.54 399.53 2582.79 399.668 2585.55 399.848 2587.81 400.06 2590.06 400.346 2591.2 401.438 2591.2 403.346L2591.2 403.346C2591.2 404.692 2589.74 406.282 2586.85 408.115 2584.02 409.949 2580.71 411.825 2576.89 413.733 2573.15 415.566 2569.34 417.368 2565.45 419.138 2561.56 420.834 2558.56 422.212 2556.44 423.272L2556.44 423.272C2552.34 425.317 2548.04 427.299 2543.52 429.207 2539.07 431.115 2534.27 433.235 2529.11 435.566 2523.89 437.898 2518.12 440.622 2511.84 443.727 2505.56 446.833 2498.46 450.543 2490.54 454.856L2490.54 454.856C2488.5 456.054 2486.55 456.87 2484.72 457.294 2482.88 457.718 2481.19 457.93 2479.63 457.93L2479.63 457.93C2476.53 457.93 2473.88 457.188 2471.68 455.704 2469.43 454.295 2467.52 452.525 2465.96 450.405 2464.4 448.359 2463.18 446.239 2462.25 444.046 2461.27 441.926 2460.42 440.156 2459.71 438.746L2459.71 438.746ZM2396.14 134.453 2385.76 244.469C2394.58 244.469 2403.74 242.212 2413.2 237.686 2422.66 233.234 2431.28 227.479 2439.05 220.41 2446.82 213.34 2453.22 205.328 2458.23 196.35 2463.24 187.373 2465.75 178.301 2465.75 169.111L2465.75 169.111C2465.75 144.098 2450.74 131.592 2420.72 131.592L2420.72 131.592C2415 131.592 2410.23 131.984 2406.42 132.758 2402.68 133.531 2399.25 134.104 2396.14 134.453Z" fill="#729343" fill-rule="evenodd"/><path d="M121.052 65.1106 373.052 65.1106 373.052 107.111 121.052 107.111Z" fill="#729343" fill-rule="evenodd"/><path d="M120.623 69.107 99.0516 69.107 134.503 19.1068 358.809 19.1068 395.052 69.107 371.917 69.107" fill="#729343" fill-rule="evenodd"/><path d="M409.06 150.113 443.06 150.113 443.06 173.113 409.06 173.113Z" fill="#729343" fill-rule="evenodd"/><path d="M497.063 341.118 430.063 341.118 430.063 143.118 497.063 143.118 497.063 341.118ZM443.936 327.219 483.203 327.219 483.203 157.011 443.936 157.011 443.936 327.219Z" fill="#729343" fill-rule="evenodd"/><path d="M412.052 101.12 81.0514 101.12 81.0514 472.12 180.349 472.12 180.349 399.248 239.937 399.248 239.937 472.12 259.795 472.12 259.795 399.248 312.754 399.248 312.754 472.12 412.052 472.12 412.052 101.12ZM220.072 339.623 120.774 339.623 120.774 293.244 220.072 293.244 220.072 339.623ZM220.072 266.744 120.774 266.744 120.774 220.372 220.072 220.372 220.072 266.744ZM220.072 187.245 120.774 187.245 120.774 140.873 220.072 140.873 220.072 187.245ZM372.335 339.623 273.038 339.623 273.038 293.244 372.342 293.244 372.342 339.623ZM372.335 266.744 273.038 266.744 273.038 220.372 372.342 220.372 372.342 266.744ZM372.335 187.245 273.038 187.245 273.038 140.873 372.342 140.873 372.342 187.245Z" fill="#729343" fill-rule="evenodd"/><path d="M20.3478 474.123C20.3478 474.123 37.5856 400.611 9.86572 356.929-17.8542 313.241-41.9253 306.66-48.1267 304.492-62.2962 299.551-105.333 340.769-101.735 375.862-119.592 351.699-124.389 300.555-84.1433 281.5-96.5331 274.205-129.03 288.904-146.964 304.518-146.964 273.227-113.056 240.655-76.8843 246.773-71.2566 239.028-68.8649 191.885 2.48456 190.123-25.4739 204.424-44.1236 238.018-41.9705 251.128-39.2759 247.719 14.9455 206.604 63.0364 272.236 32.319 261.531-4.76141 261.531-22.244 288.499 81.3377 336.542 51.9547 474.071 48.8604 474.103 44.0321 474.123 20.3478 474.123 20.3478 474.123Z" fill="#729343" fill-rule="evenodd"/></g></svg>