<?xml version="1.0" standalone="no"?>
<!DOCTYPE svg PUBLIC "-//W3C//DTD SVG 20010904//EN"
 "http://www.w3.org/TR/2001/REC-SVG-20010904/DTD/svg10.dtd">
<svg version="1.0" xmlns="http://www.w3.org/2000/svg"
 width="512.000000pt" height="512.000000pt" viewBox="0 0 512.000000 512.000000"
 preserveAspectRatio="xMidYMid meet">

<g transform="translate(0.000000,512.000000) scale(0.100000,-0.100000)"
fill="#000000" stroke="none">
<path d="M2523 4799 c-18 -3 -56 -25 -85 -48 -172 -134 -2076 -1762 -2095
-1790 -59 -88 1 -216 110 -236 46 -9 113 14 147 50 13 14 27 25 32 25 4 0 9
-526 10 -1169 l3 -1169 30 -43 c17 -23 50 -53 74 -66 l44 -23 1764 0 c1939 0
1788 -5 1856 59 66 61 61 -33 67 1248 l5 1162 43 -34 c58 -45 114 -54 174 -27
78 34 114 122 82 201 -15 38 -134 142 -1033 905 -559 473 -1038 880 -1066 903
-54 45 -110 63 -162 52z m842 -1048 l795 -675 0 -1213 0 -1213 -1600 0 -1600
0 0 1215 0 1214 796 676 c439 372 801 674 806 673 5 -2 366 -307 803 -677z"/>
<path d="M1540 2709 c-14 -6 -36 -20 -48 -32 -78 -72 -68 -185 21 -251 28 -21
29 -21 1046 -21 l1018 0 35 27 c94 71 82 214 -22 269 -33 18 -80 19 -1030 18
-636 0 -1004 -4 -1020 -10z"/>
<path d="M1510 2058 c-97 -67 -90 -219 13 -276 30 -16 103 -17 1002 -20 669
-2 985 1 1021 8 41 9 60 20 88 50 62 69 58 155 -9 220 l-36 35 -1023 3 -1023
2 -33 -22z"/>
<path d="M1547 1436 c-76 -28 -114 -89 -104 -171 5 -53 36 -97 81 -119 31 -14
132 -16 1039 -16 l1004 0 33 23 c47 31 71 67 77 115 7 55 -26 123 -75 154
l-37 23 -990 2 c-821 2 -997 0 -1028 -11z"/>
</g>
</svg>
