<?xml version="1.0" standalone="no"?>
<!DOCTYPE svg PUBLIC "-//W3C//DTD SVG 20010904//EN"
 "http://www.w3.org/TR/2001/REC-SVG-20010904/DTD/svg10.dtd">
<svg version="1.0" xmlns="http://www.w3.org/2000/svg"
 width="256.000000pt" height="256.000000pt" viewBox="0 0 256.000000 256.000000"
 preserveAspectRatio="xMidYMid meet">

<g transform="translate(0.000000,256.000000) scale(0.100000,-0.100000)"
fill="#000000" stroke="none">
<path d="M1000 2445 l0 -115 100 -50 100 -50 0 -953 0 -952 85 3 85 3 0 950 0
949 100 50 100 50 0 115 0 115 -285 0 -285 0 0 -115z m165 -35 c0 -16 -6 -26
-18 -28 -19 -4 -32 20 -23 44 9 25 41 13 41 -16z m280 0 c0 -29 -32 -41 -41
-16 -9 24 4 48 23 44 12 -2 18 -12 18 -28z m-95 -376 l0 -35 -67 3 c-62 3 -68
5 -71 26 -6 43 1 47 72 44 l66 -4 0 -34z m0 -189 l0 -36 -67 3 -68 3 -3 33 -3
32 70 0 71 0 0 -35z m0 -190 l0 -35 -70 0 -70 0 0 35 0 35 70 0 70 0 0 -35z
m0 -190 l0 -35 -70 0 -70 0 0 28 c0 16 3 32 7 35 3 4 35 7 70 7 l63 0 0 -35z
m0 -190 l0 -35 -60 0 c-33 0 -63 -1 -67 -2 -10 -4 -16 39 -9 58 4 10 23 14 71
14 l65 0 0 -35z m0 -200 l0 -36 -67 3 -68 3 -3 33 -3 32 70 0 71 0 0 -35z m0
-190 l0 -36 -67 3 -68 3 -3 33 -3 32 70 0 71 0 0 -35z m0 -190 l0 -35 -70 0
-70 0 0 35 0 35 70 0 70 0 0 -35z m0 -190 l0 -35 -70 0 -70 0 0 28 c0 16 3 32
7 35 3 4 35 7 70 7 l63 0 0 -35z"/>
<path d="M729 2390 c-62 -11 -112 -35 -149 -73 -28 -29 -30 -36 -30 -104 0
-60 3 -71 15 -67 10 4 15 0 15 -14 0 -11 -7 -25 -15 -32 -8 -7 -15 -25 -15
-41 0 -21 4 -27 15 -23 10 4 15 0 15 -14 0 -11 -7 -25 -15 -32 -8 -7 -15 -25
-15 -41 0 -21 4 -27 15 -23 10 4 15 0 15 -14 0 -11 -7 -25 -15 -32 -8 -7 -15
-25 -15 -41 0 -21 4 -27 15 -23 10 4 15 0 15 -14 0 -11 -7 -25 -15 -32 -8 -7
-15 -25 -15 -41 0 -21 4 -27 15 -23 11 5 15 -1 15 -19 0 -13 -7 -30 -15 -37
-8 -7 -15 -23 -15 -36 0 -17 4 -22 15 -18 11 5 15 -1 15 -19 0 -13 -7 -30 -15
-37 -20 -17 -20 -61 0 -54 11 5 15 -1 15 -19 0 -13 -7 -30 -15 -37 -18 -15
-20 -61 -3 -57 19 3 21 -38 3 -53 -20 -16 -20 -60 0 -60 8 0 15 -8 15 -19 0
-10 -7 -24 -15 -31 -8 -7 -15 -23 -15 -36 0 -15 6 -24 15 -24 19 0 19 -34 0
-50 -20 -16 -20 -60 0 -60 20 0 20 -46 0 -54 -20 -7 -20 -56 0 -56 20 0 20
-46 0 -54 -20 -7 -20 -56 0 -56 20 0 20 -49 0 -56 -20 -8 -20 -54 0 -54 20 0
20 -49 0 -56 -19 -8 -19 -50 0 -58 19 -7 19 -45 0 -52 -19 -8 -19 -50 0 -58
19 -7 19 -45 0 -52 -19 -8 -19 -50 0 -58 19 -7 19 -45 0 -52 -19 -8 -19 -50 0
-58 8 -3 15 -17 15 -31 0 -16 -6 -25 -15 -25 -20 0 -20 -46 0 -54 8 -3 15 -17
15 -31 0 -16 -6 -25 -15 -25 -11 0 -15 -12 -15 -50 l0 -50 120 0 120 0 0 1200
c0 660 -3 1199 -7 1199 -5 -1 -29 -5 -54 -9z m31 -180 c0 -17 -5 -30 -12 -30
-7 0 -23 -3 -35 -6 -20 -6 -23 -3 -23 24 0 30 10 38 53 41 13 1 17 -7 17 -29z
m-80 -15 c0 -34 -43 -53 -48 -22 -2 12 4 27 14 34 26 19 34 16 34 -12z m-62
-32 c-4 -34 -28 -43 -28 -10 0 25 7 37 22 37 5 0 8 -12 6 -27z m140 -70 c-2
-23 -8 -29 -35 -31 -29 -3 -33 0 -33 21 0 31 7 37 42 37 26 0 29 -3 26 -27z
m-80 -38 c-2 -1 -13 -6 -25 -9 -20 -6 -23 -4 -23 19 0 17 7 28 23 34 19 7 22
5 25 -16 2 -14 2 -26 0 -28z m-72 -33 c-15 -15 -16 -14 -16 15 0 17 6 33 13
36 18 6 21 -33 3 -51z m154 -42 c0 -17 -5 -30 -12 -30 -7 0 -23 -3 -35 -6 -20
-6 -23 -3 -23 24 0 24 5 32 23 35 44 9 47 7 47 -23z m-82 -16 c-2 -17 -11 -30
-25 -35 -21 -7 -23 -5 -23 20 0 28 10 39 38 40 9 1 12 -8 10 -25z m-70 -55
c-18 -12 -24 27 -6 48 11 15 13 13 16 -12 2 -16 -2 -31 -10 -36z m152 -49 c0
-28 -3 -30 -35 -30 -30 0 -35 3 -35 23 0 31 7 37 42 37 24 0 28 -4 28 -30z
m-80 -10 c0 -16 -4 -30 -9 -30 -5 0 -16 -3 -25 -6 -23 -9 -21 42 2 55 27 16
32 13 32 -19z m-60 -24 c0 -13 -7 -26 -15 -30 -11 -4 -15 1 -15 18 0 12 3 26
7 29 13 14 23 6 23 -17z m140 -75 c0 -21 -6 -30 -22 -35 -41 -10 -48 -7 -48
23 0 25 5 30 28 34 15 2 30 5 35 6 4 0 7 -12 7 -28z m-82 -18 c-2 -20 -9 -29
-25 -31 -19 -3 -23 1 -23 21 0 25 11 35 38 36 9 1 12 -9 10 -26z m-60 -20 c-4
-34 -28 -43 -28 -10 0 25 7 37 22 37 5 0 8 -12 6 -27z m142 -82 c0 -25 -4 -29
-35 -33 -32 -4 -35 -2 -35 23 0 29 10 37 48 38 18 1 22 -4 22 -28z m-80 -11
c0 -16 -4 -30 -9 -30 -5 0 -16 -3 -25 -6 -12 -5 -16 1 -16 24 0 28 7 35 43 41
4 0 7 -12 7 -29z m-72 -51 c-9 -6 -14 -1 -16 18 -2 14 2 30 10 34 9 6 14 1 16
-18 2 -14 -2 -30 -10 -34z m150 -56 c-2 -23 -8 -29 -35 -31 -31 -3 -33 -1 -33
27 0 29 3 31 36 31 33 0 35 -2 32 -27z m-80 -10 c-2 -20 -9 -29 -25 -31 -18
-3 -23 1 -23 21 0 29 7 37 32 37 15 0 19 -6 16 -27z m-58 -17 c0 -13 -7 -26
-15 -30 -11 -4 -15 1 -15 18 0 12 3 26 7 29 13 14 23 6 23 -17z m140 -85 c0
-25 -4 -29 -35 -33 -32 -4 -35 -2 -35 23 0 29 10 37 48 38 18 1 22 -4 22 -28z
m-80 -11 c0 -16 -4 -30 -9 -30 -5 0 -16 -3 -25 -6 -12 -5 -16 1 -16 24 0 28 7
35 43 41 4 0 7 -12 7 -29z m-62 -17 c-4 -34 -28 -43 -28 -10 0 25 7 37 22 37
5 0 8 -12 6 -27z m140 -90 c-2 -23 -8 -29 -35 -31 -31 -3 -33 -1 -33 27 0 29
3 31 36 31 33 0 35 -2 32 -27z m-80 -10 c-2 -20 -9 -29 -25 -31 -18 -3 -23 1
-23 21 0 29 7 37 32 37 15 0 19 -6 16 -27z m-70 -44 c-9 -6 -14 -1 -16 18 -2
14 2 30 10 34 9 6 14 1 16 -18 2 -14 -2 -30 -10 -34z m152 -59 c0 -23 -5 -30
-19 -30 -11 0 -26 -3 -35 -6 -12 -5 -16 1 -16 24 0 30 10 38 53 41 13 1 17 -7
17 -29z m-80 -9 c0 -23 -5 -30 -25 -33 -22 -5 -25 -2 -25 23 0 15 6 30 13 32
27 12 37 6 37 -22z m-60 -15 c0 -13 -7 -26 -15 -30 -11 -4 -15 2 -15 24 0 20
5 30 15 30 9 0 15 -9 15 -24z m140 -96 c0 -28 -3 -30 -35 -30 -32 0 -35 2 -35
30 0 28 3 30 35 30 32 0 35 -2 35 -30z m-82 -7 c-2 -20 -9 -29 -25 -31 -20 -3
-23 1 -23 27 0 27 4 31 26 31 22 0 25 -4 22 -27z m-60 -10 c-4 -34 -28 -43
-28 -10 0 25 7 37 22 37 5 0 8 -12 6 -27z m140 -95 c2 -19 -2 -27 -20 -32 -41
-10 -48 -7 -48 23 0 23 5 31 23 34 34 6 42 2 45 -25z m-78 -8 c0 -25 -4 -30
-25 -30 -20 0 -25 5 -25 24 0 13 6 27 13 29 28 12 37 6 37 -23z m-60 -10 c0
-20 -5 -30 -15 -30 -15 0 -21 40 -8 53 14 15 23 6 23 -23z m140 -100 c0 -28
-3 -30 -35 -30 -32 0 -35 2 -35 30 0 28 3 30 35 30 32 0 35 -2 35 -30z m-82
-7 c-2 -20 -9 -29 -25 -31 -20 -3 -23 1 -23 27 0 27 4 31 26 31 22 0 25 -4 22
-27z m-58 -7 c0 -13 -7 -26 -15 -30 -11 -4 -15 2 -15 24 0 20 5 30 15 30 9 0
15 -9 15 -24z m60 -106 c0 -25 -4 -30 -25 -30 -20 0 -25 5 -25 23 0 28 7 37
32 37 13 0 18 -8 18 -30z m78 3 c-2 -23 -8 -29 -35 -31 -31 -3 -33 -1 -33 27
0 29 3 31 36 31 33 0 35 -2 32 -27z m-138 -13 c0 -20 -5 -30 -15 -30 -10 0
-15 10 -15 30 0 20 5 30 15 30 10 0 15 -10 15 -30z m140 -100 c0 -28 -3 -30
-35 -30 -32 0 -35 2 -35 30 0 28 3 30 35 30 32 0 35 -2 35 -30z m-140 -10 c0
-20 -5 -30 -15 -30 -10 0 -15 10 -15 30 0 20 5 30 15 30 10 0 15 -10 15 -30z
m60 6 c0 -22 -16 -36 -41 -36 -5 0 -9 14 -9 30 0 25 4 30 25 30 20 0 25 -5 25
-24z m0 -116 c0 -25 -4 -30 -25 -30 -21 0 -25 5 -25 30 0 25 4 30 25 30 21 0
25 -5 25 -30z m80 0 c0 -28 -3 -30 -35 -30 -32 0 -35 2 -35 30 0 28 3 30 35
30 32 0 35 -2 35 -30z m-140 -4 c0 -13 -7 -26 -15 -30 -11 -4 -15 2 -15 24 0
20 5 30 15 30 9 0 15 -9 15 -24z m60 -112 c0 -13 -4 -24 -9 -24 -5 0 -16 -3
-25 -6 -12 -5 -16 1 -16 24 0 21 6 32 18 35 25 5 32 -1 32 -29z m80 6 c0 -28
-3 -30 -35 -30 -32 0 -35 2 -35 30 0 28 3 30 35 30 32 0 35 -2 35 -30z m-140
-10 c0 -20 -5 -30 -15 -30 -10 0 -15 10 -15 30 0 20 5 30 15 30 10 0 15 -10
15 -30z m0 -110 c0 -20 -5 -30 -15 -30 -10 0 -15 10 -15 30 0 20 5 30 15 30
10 0 15 -10 15 -30z m60 0 c0 -25 -4 -30 -25 -30 -21 0 -25 5 -25 30 0 25 4
30 25 30 21 0 25 -5 25 -30z m80 0 c0 -28 -3 -30 -35 -30 -32 0 -35 2 -35 30
0 28 3 30 35 30 32 0 35 -2 35 -30z m-140 -110 c0 -20 -5 -30 -15 -30 -10 0
-15 10 -15 30 0 20 5 30 15 30 10 0 15 -10 15 -30z m58 -2 c3 -24 0 -28 -22
-28 -22 0 -26 4 -26 31 0 26 3 30 23 27 16 -2 23 -11 25 -30z m80 0 c3 -26 1
-28 -32 -28 -33 0 -36 2 -36 31 0 28 2 30 33 27 27 -2 33 -8 35 -30z"/>
<path d="M1774 2386 c-2 -6 -3 -544 -2 -1196 l3 -1185 118 -3 117 -3 0 51 c0
27 -4 50 -10 50 -5 0 -10 14 -10 30 0 17 5 30 10 30 6 0 10 11 10 25 0 14 -4
25 -10 25 -5 0 -10 14 -10 30 0 17 5 30 10 30 6 0 10 11 10 25 0 14 -4 25 -10
25 -5 0 -10 14 -10 30 0 17 5 30 10 30 6 0 10 11 10 25 0 14 -4 25 -10 25 -5
0 -10 14 -10 30 0 17 5 30 10 30 6 0 10 11 10 25 0 14 -4 25 -10 25 -5 0 -10
14 -10 30 0 17 5 30 10 30 6 0 10 11 10 25 0 14 -4 25 -10 25 -5 0 -10 14 -10
30 0 17 5 30 10 30 6 0 10 11 10 24 0 14 -4 28 -10 31 -5 3 -10 17 -10 31 0
13 5 24 10 24 6 0 10 11 10 24 0 14 -4 28 -10 31 -5 3 -10 17 -10 31 0 13 5
24 10 24 6 0 10 11 10 24 0 14 -4 28 -10 31 -5 3 -10 17 -10 31 0 13 5 24 10
24 6 0 10 14 10 30 0 17 -4 30 -10 30 -5 0 -10 11 -10 25 0 14 5 25 10 25 6 0
10 14 10 30 0 17 -4 30 -10 30 -5 0 -10 14 -10 31 0 17 4 28 10 24 6 -4 10 7
10 24 0 17 -4 31 -10 31 -5 0 -10 14 -10 31 0 17 4 28 10 24 6 -4 10 6 10 24
0 16 -4 33 -10 36 -5 3 -10 17 -10 31 0 14 4 22 10 19 6 -4 10 6 10 24 0 16
-4 33 -10 36 -5 3 -10 17 -10 31 0 14 4 22 10 19 6 -4 10 6 10 24 0 16 -4 33
-10 36 -5 3 -10 17 -10 31 0 14 4 22 10 19 6 -4 10 6 10 24 0 16 -4 33 -10 36
-5 3 -10 17 -10 31 0 14 4 22 10 19 6 -4 10 6 10 24 0 16 -4 33 -10 36 -5 3
-10 17 -10 31 0 14 4 22 10 19 6 -4 10 6 10 24 0 16 -4 33 -10 36 -5 3 -10 17
-10 31 0 16 4 23 11 18 11 -7 10 10 -7 95 -5 24 -3 32 5 27 8 -5 11 14 11 67
0 67 -2 75 -27 99 -40 37 -83 56 -148 66 -40 7 -58 6 -61 -2z m94 -156 c7 0
12 -13 12 -31 0 -28 -3 -31 -22 -25 -13 3 -29 6 -35 6 -8 0 -13 13 -13 31 0
28 3 31 23 25 12 -3 28 -6 35 -6z m53 -20 c17 -10 28 -60 13 -60 -20 0 -44 24
-44 45 0 28 3 29 31 15z m59 -57 c0 -33 -24 -25 -28 10 -3 21 0 26 12 21 9 -3
16 -17 16 -31z m-116 -39 c9 -3 16 -17 16 -30 0 -21 -5 -24 -35 -24 -32 0 -35
2 -35 30 0 31 17 38 54 24z m76 -51 c0 -24 -7 -27 -34 -17 -10 4 -16 18 -16
35 0 27 1 28 25 17 16 -7 25 -19 25 -35z m40 -30 c0 -22 -2 -24 -15 -13 -8 7
-15 24 -15 37 0 22 2 24 15 13 8 -7 15 -24 15 -37z m-112 -33 c7 0 12 -13 12
-30 0 -31 -7 -34 -47 -24 -17 5 -23 14 -23 36 0 27 3 30 23 24 12 -3 28 -6 35
-6z m53 -20 c18 -10 26 -40 13 -52 -3 -3 -14 -4 -25 -1 -13 4 -19 14 -19 34 0
32 3 34 31 19z m59 -56 c0 -17 -4 -22 -15 -18 -9 4 -15 19 -15 36 0 26 2 29
15 18 8 -7 15 -23 15 -36z m-116 -40 c9 -3 16 -17 16 -30 0 -21 -5 -24 -35
-24 -32 0 -35 2 -35 30 0 31 17 38 54 24z m74 -48 c2 -14 -1 -26 -7 -26 -26 0
-41 14 -41 41 0 25 2 27 23 20 14 -5 23 -18 25 -35z m40 -20 c3 -20 0 -27 -10
-24 -7 3 -14 17 -16 32 -3 20 0 27 10 24 7 -3 14 -17 16 -32z m-117 -46 c14 0
19 -7 19 -30 0 -23 -5 -30 -19 -30 -37 0 -51 12 -51 42 0 23 4 29 16 24 9 -3
24 -6 35 -6z m63 -16 c9 -3 16 -17 16 -31 0 -20 -4 -24 -22 -21 -17 2 -24 11
-26 31 -3 27 4 32 32 21z m56 -55 c0 -21 -4 -27 -15 -23 -8 4 -15 19 -15 35 0
21 4 27 15 23 8 -4 15 -19 15 -35z m-116 -45 c9 -3 16 -17 16 -30 0 -21 -5
-24 -35 -24 -32 0 -35 2 -35 30 0 31 17 38 54 24z m74 -49 c3 -22 0 -27 -13
-21 -9 3 -21 6 -26 6 -5 0 -9 13 -9 30 0 26 2 28 23 21 14 -5 23 -18 25 -36z
m42 -21 c0 -17 -4 -22 -15 -18 -9 4 -15 19 -15 36 0 26 2 29 15 18 8 -7 15
-23 15 -36z m-102 -76 c3 -26 1 -28 -32 -28 -33 0 -36 2 -36 31 0 28 2 30 33
27 27 -2 33 -8 35 -30z m46 16 c9 -3 16 -17 16 -31 0 -20 -4 -24 -22 -21 -17
2 -24 11 -26 31 -3 27 4 32 32 21z m54 -48 c3 -20 0 -27 -10 -24 -7 3 -14 17
-16 32 -3 20 0 27 10 24 7 -3 14 -17 16 -32z m-120 -52 c14 -4 22 -14 22 -28
0 -30 -5 -33 -40 -28 -25 4 -30 9 -30 33 0 30 8 33 48 23z m63 -14 c18 -10 26
-40 13 -52 -3 -3 -14 -4 -25 -1 -13 4 -19 14 -19 34 0 32 3 34 31 19z m59 -46
c0 -15 -6 -24 -15 -24 -10 0 -15 10 -15 30 0 22 4 28 15 24 8 -4 15 -17 15
-30z m-102 -86 c3 -26 1 -28 -32 -28 -33 0 -36 2 -36 31 0 28 2 30 33 27 27
-2 33 -8 35 -30z m60 -11 c3 -25 0 -28 -20 -25 -17 2 -24 11 -26 31 -3 25 0
28 20 25 17 -2 24 -11 26 -31z m42 -18 c0 -21 -4 -27 -15 -23 -8 4 -15 19 -15
35 0 21 4 27 15 23 8 -4 15 -19 15 -35z m-112 -59 c11 0 17 -41 7 -52 -3 -2
-18 -3 -35 0 -26 4 -30 9 -30 34 0 27 3 30 23 24 12 -3 28 -6 35 -6z m63 -10
c10 0 13 -43 3 -52 -3 -3 -14 -4 -25 -1 -13 4 -19 14 -19 35 0 23 4 29 16 24
9 -3 20 -6 25 -6z m47 -44 c3 -20 0 -27 -10 -24 -7 3 -14 17 -16 32 -3 20 0
27 10 24 7 -3 14 -17 16 -32z m-100 -88 c3 -26 1 -28 -32 -28 -33 0 -36 2 -36
31 0 28 2 30 33 27 27 -2 33 -8 35 -30z m60 -11 c3 -25 0 -28 -20 -25 -17 2
-24 11 -26 31 -3 25 0 28 20 25 17 -2 24 -11 26 -31z m40 -10 c2 -19 -1 -27
-12 -27 -11 0 -16 10 -16 31 0 38 24 35 28 -4z m-117 -67 c14 0 19 -7 19 -30
0 -31 -7 -34 -47 -24 -17 5 -23 14 -23 36 0 23 4 29 16 24 9 -3 24 -6 35 -6z
m63 -6 c9 -3 16 -17 16 -30 0 -19 -5 -24 -25 -24 -21 0 -25 5 -25 30 0 31 6
35 34 24z m56 -40 c0 -15 -6 -24 -15 -24 -10 0 -15 10 -15 30 0 22 4 28 15 24
8 -4 15 -17 15 -30z m-102 -96 c3 -26 1 -28 -32 -28 -33 0 -36 2 -36 31 0 28
2 30 33 27 27 -2 33 -8 35 -30z m57 -8 c0 -38 -39 -35 -43 3 -3 25 0 28 20 25
17 -2 23 -9 23 -28z m45 -11 c0 -38 -24 -35 -28 4 -2 19 1 27 12 27 11 0 16
-10 16 -31z m-100 -99 c0 -28 -3 -30 -35 -30 -32 0 -35 2 -35 30 0 28 3 30 35
30 32 0 35 -2 35 -30z m58 -2 c3 -24 0 -28 -22 -28 -22 0 -26 4 -26 31 0 26 3
30 23 27 16 -2 23 -11 25 -30z m42 -8 c0 -20 -5 -30 -15 -30 -10 0 -15 10 -15
30 0 20 5 30 15 30 10 0 15 -10 15 -30z m-102 -102 c3 -26 1 -28 -32 -28 -33
0 -36 2 -36 31 0 28 2 30 33 27 27 -2 33 -8 35 -30z m60 -5 c-2 -20 -9 -28
-23 -28 -14 0 -21 8 -23 28 -3 23 0 27 23 27 23 0 26 -4 23 -27z m40 -6 c2
-19 -1 -27 -12 -27 -11 0 -16 10 -16 31 0 38 24 35 28 -4z m-98 -107 c0 -28
-3 -30 -35 -30 -32 0 -35 2 -35 30 0 28 3 30 35 30 32 0 35 -2 35 -30z m58 -2
c3 -24 0 -28 -22 -28 -22 0 -26 4 -26 31 0 26 3 30 23 27 16 -2 23 -11 25 -30z
m42 -10 c0 -40 -24 -32 -28 10 -3 25 0 31 12 26 10 -4 16 -18 16 -36z m-102
-100 c3 -26 1 -28 -32 -28 -33 0 -36 2 -36 31 0 28 2 30 33 27 27 -2 33 -8 35
-30z m62 -4 c0 -27 -12 -37 -34 -28 -9 4 -16 18 -16 34 0 24 3 27 25 22 18 -3
25 -11 25 -28z m40 -4 c0 -20 -5 -30 -15 -30 -10 0 -15 10 -15 30 0 20 5 30
15 30 10 0 15 -10 15 -30z m-100 -110 c0 -28 -3 -30 -35 -30 -32 0 -35 2 -35
30 0 28 3 30 35 30 32 0 35 -2 35 -30z m58 -2 c3 -24 0 -28 -22 -28 -22 0 -26
4 -26 31 0 26 3 30 23 27 16 -2 23 -11 25 -30z m42 2 c0 -20 -5 -30 -15 -30
-10 0 -15 10 -15 30 0 20 5 30 15 30 10 0 15 -10 15 -30z m-102 -112 c3 -26 1
-28 -32 -28 -33 0 -36 2 -36 31 0 28 2 30 33 27 27 -2 33 -8 35 -30z m60 0 c3
-24 0 -28 -22 -28 -22 0 -26 4 -26 31 0 26 3 30 23 27 16 -2 23 -11 25 -30z
m42 2 c0 -20 -5 -30 -15 -30 -10 0 -15 10 -15 30 0 20 5 30 15 30 10 0 15 -10
15 -30z"/>
<path d="M810 1198 l0 -1194 103 13 c56 7 110 12 120 13 15 0 17 13 17 131 0
111 -2 130 -15 126 -8 -4 -17 -2 -20 3 -3 5 13 15 36 22 23 6 37 14 30 16 -6
2 -11 15 -11 28 0 20 5 24 30 24 25 0 30 -4 30 -24 0 -15 -7 -26 -17 -29 -10
-2 -1 -4 19 -3 l38 1 0 950 0 950 -171 80 c-94 44 -175 82 -180 83 -5 2 -9
-465 -9 -1190z m195 1015 c28 -13 35 -22 35 -46 0 -24 -3 -28 -17 -22 -10 4
-30 12 -45 17 -22 8 -28 16 -28 39 0 34 7 35 55 12z m100 -45 c16 -7 25 -19
25 -35 0 -26 0 -26 -34 -13 -19 7 -26 17 -26 35 0 29 0 29 35 13z m-84 -78
c11 -6 19 -21 19 -35 0 -29 0 -29 -51 -13 -35 10 -39 14 -39 44 0 32 1 33 26
24 14 -6 34 -15 45 -20z m109 -66 c0 -27 0 -27 -34 -14 -18 7 -26 17 -26 34 0
23 2 24 30 15 22 -8 30 -17 30 -35z m-126 -39 c28 -12 36 -21 36 -41 0 -25 -2
-26 -37 -19 -50 9 -53 11 -53 46 0 33 4 35 54 14z m126 -73 c0 -18 -4 -23 -16
-18 -9 3 -22 6 -30 6 -9 0 -14 11 -14 29 0 28 1 29 30 18 22 -8 30 -18 30 -35z
m-90 -84 c0 -25 -3 -29 -17 -23 -10 3 -30 9 -45 12 -24 5 -28 10 -28 39 l0 33
45 -16 c40 -13 45 -18 45 -45z m71 2 c10 -6 19 -20 19 -32 0 -16 -4 -19 -22
-14 -13 3 -26 6 -30 6 -12 0 -9 50 3 50 6 0 19 -5 30 -10z m-106 -74 c27 -12
35 -21 35 -40 0 -29 -1 -30 -52 -15 -33 9 -38 14 -38 39 0 34 7 36 55 16z m99
-36 c28 -10 37 -50 12 -50 -30 0 -46 13 -46 36 0 27 0 27 34 14z m-66 -114 c4
-28 -3 -30 -57 -20 -27 6 -31 11 -31 39 l0 33 43 -13 c34 -10 43 -17 45 -39z
m66 4 c17 -6 26 -17 26 -30 0 -17 -5 -21 -27 -18 -22 2 -29 9 -31 31 -4 30 -3
31 32 17z m-103 -82 c34 -10 39 -15 39 -40 0 -23 -4 -28 -17 -25 -10 3 -30 8
-45 11 -23 5 -28 12 -28 36 0 34 -1 34 51 18z m129 -59 c0 -14 -7 -19 -30 -19
-27 0 -30 3 -30 29 0 29 1 30 30 20 19 -7 30 -18 30 -30z m-92 -93 c3 -27 2
-29 -28 -22 -18 3 -39 6 -46 6 -9 0 -14 12 -14 34 l0 35 43 -13 c35 -10 43
-16 45 -40z m76 8 c9 -3 16 -17 16 -31 0 -19 -4 -24 -16 -19 -9 3 -22 6 -30 6
-8 0 -14 10 -14 25 0 25 13 31 44 19z m-111 -85 c30 -8 37 -15 37 -34 0 -21
-5 -25 -29 -25 -47 0 -61 10 -61 41 0 33 1 33 53 18z m105 -25 c15 -5 22 -14
22 -31 0 -19 -4 -24 -16 -19 -9 3 -22 6 -30 6 -8 0 -14 10 -14 25 0 27 3 28
38 19z m-75 -94 c4 0 7 -14 7 -31 0 -28 -3 -31 -22 -25 -13 3 -33 6 -45 6 -19
0 -23 5 -23 34 l0 34 38 -9 c20 -5 40 -9 45 -9z m83 -20 c8 0 14 -10 14 -25 0
-15 -6 -25 -14 -25 -30 0 -46 13 -46 37 0 19 4 24 16 19 9 -3 22 -6 30 -6z
m-84 -96 c5 -3 8 -16 8 -30 0 -20 -5 -24 -29 -24 -47 0 -61 10 -61 42 0 29 1
30 37 23 21 -4 41 -9 45 -11z m96 -42 c3 -19 -1 -22 -27 -22 -28 0 -31 3 -31
29 0 27 2 29 28 22 17 -5 28 -15 30 -29z m-95 -72 c4 0 7 -11 7 -25 0 -23 -4
-25 -45 -25 -44 0 -45 0 -45 34 l0 34 38 -9 c20 -5 40 -9 45 -9z m95 -37 c3
-20 -1 -23 -27 -23 -27 0 -31 4 -31 26 0 22 4 25 28 22 19 -2 28 -9 30 -25z
m-102 -73 c9 0 14 -11 14 -30 0 -24 -4 -30 -22 -30 -51 0 -68 11 -68 42 0 29
2 30 31 24 17 -3 38 -6 45 -6z m88 -16 c9 -3 16 -15 16 -25 0 -14 -7 -19 -30
-19 -25 0 -30 4 -30 25 0 25 13 31 44 19z m-76 -126 c3 -27 2 -28 -42 -28 -45
0 -46 1 -46 31 0 29 1 30 43 27 38 -3 42 -6 45 -30z m70 16 c13 -4 22 -14 22
-25 0 -14 -7 -19 -30 -19 -25 0 -30 4 -30 25 0 27 3 28 38 19z m-99 -100 c24
-5 31 -12 31 -30 0 -22 -4 -24 -45 -24 -43 0 -45 1 -45 30 0 32 6 34 59 24z
m107 -14 c8 0 14 -9 14 -20 0 -16 -7 -20 -30 -20 -26 0 -30 4 -30 26 0 20 4
25 16 20 9 -3 22 -6 30 -6z m-76 -130 c0 -29 -2 -30 -45 -30 -43 0 -45 1 -45
30 0 29 2 30 45 30 43 0 45 -1 45 -30z m90 -5 c0 -21 -5 -25 -30 -25 -25 0
-30 4 -30 25 0 21 5 25 30 25 25 0 30 -4 30 -25z m-92 -107 c3 -27 2 -28 -42
-28 -45 0 -46 1 -46 31 0 29 1 30 43 27 38 -3 42 -6 45 -30z m0 -115 c-3 -25
-7 -28 -45 -31 -42 -3 -43 -2 -43 27 0 30 1 31 46 31 44 0 45 -1 42 -27z m2
-113 c0 -29 -2 -30 -45 -30 -43 0 -45 1 -45 30 0 29 2 30 45 30 43 0 45 -1 45
-30z"/>
<path d="M1570 2306 l-175 -83 0 -949 0 -949 53 -3 c61 -4 102 -16 102 -32 0
-5 -9 -10 -20 -10 -19 0 -20 -7 -20 -124 l0 -123 44 -6 c25 -4 81 -9 125 -13
l81 -7 0 1192 c0 655 -3 1191 -7 1191 -5 0 -87 -38 -183 -84z m50 -100 c0 -27
-12 -39 -57 -54 -32 -11 -33 -10 -33 17 0 21 8 31 33 44 45 22 57 21 57 -7z
m-120 -50 c0 -18 -8 -27 -30 -35 -28 -9 -30 -8 -30 13 0 14 9 27 23 34 33 16
37 14 37 -12z m115 -72 c1 -27 -11 -37 -57 -48 -25 -6 -28 -4 -28 21 0 23 7
31 38 44 43 18 45 17 47 -17z m-115 -39 c0 -18 -7 -28 -26 -35 -34 -13 -34
-13 -34 13 0 15 9 28 23 35 33 16 37 14 37 -13z m120 -74 c0 -24 -6 -31 -31
-40 -48 -17 -59 -14 -59 14 0 20 8 29 33 40 47 21 57 19 57 -14z m-127 -61
c-4 -4 -18 -11 -30 -15 -20 -5 -23 -3 -23 18 0 19 7 28 28 35 23 8 27 6 30
-11 2 -10 0 -23 -5 -27z m125 -61 c-2 -18 -13 -26 -45 -35 l-43 -13 0 28 c0
23 7 31 38 43 42 17 55 11 50 -23z m-118 -34 c0 -14 -3 -25 -7 -25 -5 0 -18
-3 -30 -6 -20 -5 -23 -2 -23 19 0 24 11 32 48 36 6 0 12 -10 12 -24z m120 -75
c0 -25 -5 -30 -37 -39 -52 -15 -53 -15 -53 18 0 23 6 30 33 39 51 16 57 14 57
-18z m-120 -35 c0 -14 -3 -25 -7 -25 -5 0 -18 -3 -30 -6 -19 -5 -23 -2 -23 14
0 21 23 41 48 42 6 0 12 -11 12 -25z m118 -82 c-3 -26 -30 -43 -69 -43 -16 0
-20 6 -17 27 2 20 11 29 38 38 43 15 50 11 48 -22z m-118 -27 c0 -23 -16 -36
-46 -36 -23 0 -16 40 9 50 33 13 37 12 37 -14z m117 -85 c2 -31 1 -32 -59 -45
-26 -6 -28 -4 -28 24 0 25 5 31 33 39 49 14 52 13 54 -18z m-120 -45 c-3 -7
-17 -16 -32 -18 -23 -5 -26 -3 -23 20 2 18 11 28 28 32 26 6 37 -8 27 -34z
m123 -71 c0 -28 -4 -31 -53 -40 -36 -7 -37 -6 -37 22 0 26 5 31 38 39 45 12
52 10 52 -21z m-120 -29 c0 -19 -6 -25 -30 -28 -26 -4 -30 -1 -30 18 0 23 11
32 43 33 11 1 17 -7 17 -23z m120 -85 c0 -31 -14 -41 -61 -41 -24 0 -29 4 -29
25 0 19 7 26 33 34 51 15 57 13 57 -18z m-120 -26 c0 -15 -6 -25 -14 -25 -8 0
-21 -3 -30 -6 -12 -5 -16 0 -16 19 0 24 11 32 48 36 6 0 12 -10 12 -24z m120
-90 c0 -28 -3 -30 -52 -39 -37 -7 -38 -6 -38 23 0 25 5 30 38 38 45 12 52 9
52 -22z m-120 -19 c0 -16 -7 -26 -22 -30 -35 -9 -38 -8 -38 18 0 23 4 26 53
35 4 0 7 -10 7 -23z m117 -93 c-2 -31 -17 -41 -59 -42 -24 -1 -28 3 -28 28 0
25 5 30 28 34 59 9 61 8 59 -20z m-121 -39 c-3 -8 -17 -14 -31 -14 -20 0 -25
5 -25 24 0 19 6 25 28 28 28 3 38 -11 28 -38z m122 -81 c-3 -25 -7 -28 -45
-31 -40 -3 -43 -1 -43 22 0 28 11 34 58 35 31 1 33 -1 30 -26z m-118 -18 c0
-21 -5 -25 -30 -25 -22 0 -30 5 -30 18 0 25 9 32 37 32 18 0 23 -5 23 -25z
m118 -96 c3 -28 -15 -39 -65 -39 -19 0 -23 6 -23 29 0 25 5 30 28 34 46 7 57
3 60 -24z m-118 -14 c0 -21 -5 -25 -30 -25 -22 0 -30 5 -30 18 0 25 9 32 37
32 18 0 23 -5 23 -25z m117 -102 c-3 -25 -8 -28 -45 -31 -38 -3 -42 -1 -42 21
0 32 7 37 52 37 36 0 38 -2 35 -27z m-117 -8 c0 -21 -5 -25 -30 -25 -23 0 -30
5 -30 19 0 18 14 27 48 30 6 0 12 -10 12 -24z m118 -107 c3 -27 2 -28 -42 -28
-42 0 -46 2 -46 24 0 18 7 26 23 29 46 9 62 3 65 -25z m-118 -3 c0 -21 -5 -25
-30 -25 -23 0 -30 5 -30 19 0 18 6 21 53 30 4 0 7 -10 7 -24z m115 -112 c-2
-25 -6 -28 -43 -31 -41 -3 -42 -2 -42 27 0 30 2 31 43 31 40 0 43 -2 42 -27z
m-115 -8 c0 -21 -5 -25 -30 -25 -25 0 -30 4 -30 25 0 21 5 25 30 25 25 0 30
-4 30 -25z m118 -107 c3 -27 2 -28 -42 -28 -42 0 -46 2 -46 23 0 32 9 38 50
35 30 -3 35 -7 38 -30z m-118 -3 c0 -21 -5 -25 -30 -25 -25 0 -30 4 -30 25 0
21 5 25 30 25 25 0 30 -4 30 -25z m118 -112 c-3 -25 -7 -28 -45 -31 -42 -3
-43 -2 -43 27 0 30 1 31 46 31 44 0 45 -1 42 -27z m0 -115 c3 -27 2 -28 -42
-28 -45 0 -46 1 -46 31 0 29 1 30 43 27 38 -3 42 -6 45 -30z"/>
<path d="M1183 303 c59 -2 154 -2 210 0 56 1 8 3 -108 3 -115 0 -161 -2 -102
-3z"/>
<path d="M1070 161 l0 -129 213 2 212 1 0 125 0 125 -212 3 -213 2 0 -129z
m130 -1 l0 -90 -45 0 -45 0 0 90 0 90 45 0 45 0 0 -90z m130 0 l0 -90 -45 0
-45 0 0 90 0 90 45 0 45 0 0 -90z m128 3 l-3 -88 -45 0 -45 0 -3 88 -3 87 51
0 51 0 -3 -87z"/>
</g>
</svg>
