<?xml version="1.0" standalone="no"?>
<!DOCTYPE svg PUBLIC "-//W3C//DTD SVG 20010904//EN"
 "http://www.w3.org/TR/2001/REC-SVG-20010904/DTD/svg10.dtd">
<svg version="1.0" xmlns="http://www.w3.org/2000/svg"
 width="1280.000000pt" height="1052.000000pt" viewBox="0 0 1280.000000 1052.000000"
 preserveAspectRatio="xMidYMid meet">
<g transform="translate(0.000000,1052.000000) scale(0.100000,-0.100000)"
fill="#000000" stroke="none">
<path d="M1115 10496 c-61 -28 -110 -77 -127 -125 -11 -29 -13 -1017 -13
-5051 0 -2758 4 -5032 8 -5053 10 -48 69 -114 122 -138 22 -10 60 -19 85 -19
25 0 54 -7 64 -15 17 -13 723 -15 5718 -15 5044 0 5702 2 5728 15 35 18 73 67
90 115 11 31 10 41 -10 83 -24 51 -68 94 -103 102 -12 2 -195 8 -407 12 l-385
8 -3 4052 -2 4052 -56 7 c-31 3 -288 5 -572 2 -588 -5 -536 5 -547 -101 -9
-93 -1 -7949 8 -7973 8 -20 4 -22 -85 -35 -70 -11 -187 -13 -477 -11 -211 1
-387 5 -392 8 -5 3 -9 1941 -9 4520 l0 4515 -594 -3 c-327 -2 -598 -7 -603
-11 -12 -13 -16 -8821 -3 -8883 6 -28 19 -67 30 -86 l19 -36 -52 -6 c-145 -18
-297 -22 -537 -17 l-265 6 -3 4102 -2 4102 -37 7 c-45 9 -1052 -1 -1074 -11
-9 -3 -20 -20 -23 -37 -3 -17 -6 -1824 -6 -4017 0 -3466 2 -3995 15 -4055 8
-38 14 -71 12 -72 -1 -2 -77 -10 -168 -20 -140 -14 -216 -15 -514 -8 l-350 9
-3 3128 -2 3128 -594 -3 c-327 -2 -598 -7 -603 -11 -12 -13 -16 -6051 -3
-6112 6 -28 17 -63 25 -79 9 -16 14 -30 13 -31 -2 -1 -37 -7 -78 -13 -117 -18
-339 -23 -650 -15 l-285 8 -5 2770 -5 2770 -536 3 c-295 1 -561 -1 -590 -6
-51 -7 -55 -9 -67 -46 -10 -30 -12 -597 -10 -2755 l3 -2718 -55 -12 c-62 -14
-665 -28 -724 -17 l-36 7 -2 4973 -3 4973 -30 49 c-23 37 -45 57 -90 81 -72
39 -85 40 -150 9z"/>
<path d="M474 8901 c-54 -33 -69 -80 -69 -211 0 -90 4 -122 18 -147 37 -69 87
-92 158 -73 29 8 46 22 67 52 26 40 27 47 27 167 0 102 -3 132 -18 159 -36 67
-121 91 -183 53z m119 -32 c38 -29 50 -81 45 -200 -4 -116 -17 -148 -70 -170
-26 -10 -35 -10 -56 2 -51 29 -66 62 -70 162 -2 53 1 111 8 136 22 83 87 115
143 70z"/>
<path d="M86 8888 c-14 -62 -36 -181 -36 -189 0 -15 47 -10 60 6 18 21 76 29
111 15 62 -26 81 -132 33 -189 -48 -58 -136 -47 -164 19 -12 30 -39 38 -47 14
-7 -22 43 -79 82 -92 86 -28 171 18 194 106 31 114 -74 215 -179 172 -17 -7
-33 -10 -36 -7 -11 10 8 107 23 122 10 11 37 15 94 15 64 0 79 3 79 15 0 12
-18 15 -105 15 -100 0 -105 -1 -109 -22z"/>
<path d="M121 7036 c-55 -79 -101 -153 -101 -165 0 -20 5 -21 84 -21 113 0
116 -2 116 -61 0 -42 3 -49 19 -49 17 0 20 8 23 53 3 48 5 52 31 55 15 2 27 9
27 17 0 8 -12 15 -27 17 l-28 3 -3 148 c-3 193 -6 194 -141 3z m97 -52 l-3
-99 -69 -3 c-38 -2 -73 1 -78 6 -5 5 11 38 38 78 78 115 96 136 106 126 5 -5
7 -53 6 -108z"/>
<path d="M466 7159 c-43 -34 -59 -76 -64 -175 -8 -166 32 -244 131 -252 46 -4
57 -1 84 22 50 42 65 97 61 217 -4 118 -22 170 -69 194 -42 22 -111 19 -143
-6z m128 -28 c34 -29 46 -76 46 -176 0 -105 -14 -152 -51 -179 -54 -38 -118
-6 -139 68 -19 70 -10 228 16 263 40 53 85 62 128 24z"/>
<path d="M115 5436 c-33 -14 -65 -55 -65 -81 0 -25 29 -17 44 14 37 71 143 61
162 -15 10 -40 -12 -73 -62 -95 -50 -23 -51 -31 -2 -36 46 -4 88 -52 88 -99 0
-45 -54 -104 -94 -104 -41 0 -82 26 -96 60 -12 30 -33 39 -45 20 -9 -14 22
-67 49 -85 64 -42 168 -22 206 39 35 58 22 141 -26 167 -24 12 -33 39 -14 39
13 0 40 54 40 79 0 31 -21 69 -46 86 -34 22 -103 28 -139 11z"/>
<path d="M482 5434 c-19 -10 -43 -35 -55 -58 -19 -35 -22 -57 -22 -156 0 -97
3 -121 21 -155 49 -96 180 -97 231 -2 26 47 26 267 0 314 -34 63 -113 89 -175
57z m120 -41 c30 -27 40 -82 36 -195 -2 -89 -6 -111 -24 -135 -43 -57 -117
-52 -152 11 -22 40 -24 234 -3 284 25 59 97 77 143 35z"/>
<path d="M115 3700 c-49 -20 -89 -92 -59 -104 17 -7 34 8 34 31 0 6 12 21 26
32 34 27 93 27 127 1 63 -50 35 -126 -85 -227 -82 -70 -139 -146 -121 -164 5
-5 67 -8 144 -7 118 3 134 5 137 21 3 15 -7 17 -102 17 -69 0 -107 4 -112 12
-4 7 30 47 89 102 138 130 158 197 81 265 -30 26 -42 31 -87 30 -29 0 -61 -4
-72 -9z"/>
<path d="M461 3684 c-82 -69 -82 -329 0 -398 40 -34 113 -36 154 -4 48 37 65
91 65 203 0 112 -17 166 -65 203 -41 32 -114 30 -154 -4z m137 -26 c11 -13 25
-36 31 -51 14 -37 14 -207 0 -244 -26 -71 -90 -94 -142 -53 -33 27 -47 76 -47
170 0 136 32 200 100 200 25 0 43 -7 58 -22z"/>
<path d="M196 1955 c-9 -14 -39 -42 -66 -61 -28 -20 -50 -42 -50 -50 0 -20 10
-18 52 11 67 45 68 42 68 -166 0 -135 2 -159 15 -159 13 0 15 32 15 225 0 124
-4 225 -9 225 -5 0 -16 -11 -25 -25z"/>
<path d="M503 1973 c-32 -6 -80 -66 -94 -115 -16 -62 -7 -214 16 -262 47 -98
179 -101 232 -4 14 27 18 56 18 153 0 130 -14 179 -59 209 -26 17 -80 26 -113
19z m75 -37 c48 -25 57 -56 57 -192 0 -109 -2 -126 -21 -151 -44 -58 -112 -55
-148 7 -18 30 -21 52 -21 150 0 96 3 120 19 147 31 50 68 63 114 39z"/>
</g>
</svg>
