<?xml version="1.0" standalone="no"?>
<!DOCTYPE svg PUBLIC "-//W3C//DTD SVG 20010904//EN"
 "http://www.w3.org/TR/2001/REC-SVG-20010904/DTD/svg10.dtd">
<svg version="1.0" xmlns="http://www.w3.org/2000/svg"
 width="800.000000pt" height="800.000000pt" viewBox="0 0 800.000000 800.000000"
 preserveAspectRatio="xMidYMid meet">

<g transform="translate(0.000000,800.000000) scale(0.100000,-0.100000)"
fill="#000000" stroke="none">
<path d="M3828 7589 c-445 -43 -878 -263 -1170 -594 -378 -428 -531 -999 -418
-1558 75 -370 283 -730 565 -979 617 -544 1518 -606 2196 -149 264 177 469
412 609 696 248 504 248 1086 0 1590 -329 669 -1041 1065 -1782 994z"/>
<path d="M3675 3590 c-321 -18 -676 -66 -935 -129 -1040 -250 -1738 -837
-1912 -1609 -21 -93 -22 -123 -25 -774 l-4 -678 3201 0 3201 0 -4 678 c-3 644
-5 682 -25 770 -109 485 -422 899 -908 1207 -128 81 -399 214 -550 269 -359
133 -786 221 -1233 256 -193 14 -620 20 -806 10z"/>
</g>
</svg>
